<?xml version="1.0" encoding="UTF-8"?>
<svg version="1.1" xmlns="http://www.w3.org/2000/svg" width="512" height="512">
<path d="M0 0 C5.83269222 1.32003035 10.24786634 5.34685581 14.84472656 8.99414062 C18.02265162 11.50433614 21.25498977 13.94169794 24.48095703 16.38964844 C27.17448525 18.435727 29.86083032 20.490986 32.546875 22.546875 C37.7976696 26.55396087 43.0897813 30.50244599 48.40625 34.421875 C49.18057373 34.99389648 49.95489746 35.56591797 50.75268555 36.15527344 C52.18117177 37.20523682 53.61469276 38.24840017 55.05419922 39.28320312 C56.26127073 40.15872248 57.45315216 41.05596227 58.62158203 41.98242188 C61.19165483 43.93058201 62.53299276 44.70369637 65.79711914 44.46533203 C69.22276028 43.60832844 71.56500045 42.3914141 74.5546875 40.5234375 C75.63492188 39.85683105 76.71515625 39.19022461 77.828125 38.50341797 C78.39982422 38.14455505 78.97152344 37.78569214 79.56054688 37.41595459 C82.00710686 35.88057407 84.46677897 34.36680836 86.92608643 32.85195923 C88.23265584 32.04711855 89.53859373 31.24125183 90.84393311 30.43441772 C98.49609593 25.7109651 106.23099585 21.12823925 113.96875 16.546875 C115.2974116 15.75870774 116.62602598 14.97046089 117.95458984 14.18212891 C120.45011963 12.70174257 122.94838835 11.22614772 125.44873047 9.75390625 C127.77591525 8.38251664 130.09118302 6.99368251 132.39892578 5.58984375 C133.4557959 4.95433594 134.51266602 4.31882812 135.6015625 3.6640625 C136.52340332 3.10315918 137.44524414 2.54225586 138.39501953 1.96435547 C141.58620836 0.36179868 144.29511453 -0.09027116 147.8359375 -0.0625 C154.57051412 2.25636521 158.24215383 8.58234104 161.87890625 14.2734375 C162.43480942 15.12541718 162.99071259 15.97739685 163.5634613 16.85519409 C164.76464503 18.6979315 165.96161099 20.54342374 167.15478516 22.39135742 C170.38697359 27.39607698 173.65081164 32.38012937 176.91015625 37.3671875 C177.91576096 38.90859406 177.91576096 38.90859406 178.94168091 40.48114014 C185.67382478 50.78642648 192.56061686 60.98410757 199.46875 71.171875 C211.55660228 89.01592618 223.45081277 106.98228452 235.26841736 125.00628662 C237.38284553 128.22410772 239.50991495 131.43347732 241.63699341 134.64294434 C242.80462698 136.42183364 243.94457117 138.21883425 245.07983398 140.01855469 C248.643594 145.51837437 250.96574967 147.88955389 257.28125 149.796875 C268.70476462 153.71652881 277.15143735 160.95176173 282.96875 171.671875 C287.18612621 181.29056308 287.55762781 190.41800555 287.54296875 200.70703125 C287.55544158 202.31938678 287.56978337 203.93172882 287.58589172 205.54405212 C287.62360734 209.74973427 287.63905411 213.95518185 287.64868164 218.16101074 C287.66856753 224.92253473 287.72528254 231.6838832 287.77744484 238.44521904 C287.792761 240.80008899 287.79997229 243.15486999 287.80558777 245.50978088 C287.81260123 246.94670659 287.81970193 248.38363187 287.8269043 249.82055664 C287.83038376 251.07453751 287.83386322 252.32851837 287.83744812 253.62049866 C287.83043756 256.71552259 287.83043756 256.71552259 288.96875 259.671875 C292.20055889 261.28777945 295.74807441 260.85059737 299.30078125 260.8828125 C301.00326474 260.91088604 302.70573857 260.93955054 304.40820312 260.96875 C307.09415364 261.00997793 309.77992476 261.04686199 312.46606445 261.07324219 C315.05718341 261.10090114 317.64748037 261.14677724 320.23828125 261.1953125 C321.03740433 261.19856537 321.8365274 261.20181824 322.65986633 261.20516968 C327.2325534 261.30564413 330.25973476 261.71494022 333.96875 264.671875 C336.05701334 267.80427001 336.22180226 268.5263489 336.24290466 272.09236145 C336.25287979 272.99654312 336.26285492 273.90072479 336.27313232 274.83230591 C336.273797 275.82197357 336.27446167 276.81164124 336.27514648 277.83129883 C336.28347 278.87548477 336.29179352 279.91967072 336.30036926 280.99549866 C336.32451758 284.45667216 336.33324762 287.91765736 336.33984375 291.37890625 C336.34880682 293.78163206 336.3579286 296.18435728 336.36720276 298.58708191 C336.38370875 303.6284623 336.39139574 308.66977615 336.39428711 313.71118164 C336.39967064 320.17111141 336.4373435 326.63041579 336.48303127 333.09016895 C336.51277532 338.05472597 336.52001011 343.01913198 336.52101326 347.98377037 C336.52522126 350.36521962 336.53767862 352.7466691 336.55853081 355.12803078 C336.58538696 358.46057703 336.58063569 361.79166835 336.56811523 365.12426758 C336.59036667 366.59966003 336.59036667 366.59966003 336.61306763 368.1048584 C336.56551968 372.54932858 336.43682073 375.70117038 333.61878967 379.26860046 C330.08738396 382.47117041 327.67642336 382.79664578 323.08406067 382.81904602 C322.07653244 382.82620132 321.06900421 382.83335663 320.03094482 382.84072876 C318.92607727 382.84341766 317.82120972 382.84610657 316.68286133 382.84887695 C314.93585182 382.85873375 314.93585182 382.85873375 313.15354919 382.86878967 C309.28595923 382.88855064 305.4184083 382.90019648 301.55078125 382.91015625 C300.21416389 382.91420624 298.87754674 382.91832323 297.54092979 382.92250633 C291.25007725 382.9415692 284.95923641 382.95578902 278.66836053 382.9641183 C271.44133642 382.97384749 264.21462214 383.00004802 256.98770696 383.04061919 C251.38319409 383.07098442 245.77876885 383.08560692 240.17417544 383.08889931 C236.83678538 383.09122989 233.49998578 383.10195704 230.16263771 383.12536049 C207.80349761 383.27230844 187.22184638 382.35058141 170.2109375 365.9375 C169.47101563 365.18984375 168.73109375 364.4421875 167.96875 363.671875 C167.33195312 363.06859375 166.69515625 362.4653125 166.0390625 361.84375 C162.06718294 357.78360645 159.57322813 353.31790709 157.15625 348.234375 C156.86596924 347.62577637 156.57568848 347.01717773 156.27661133 346.39013672 C149.94430642 332.31295017 150.17033462 315.68977987 154.64453125 301.10546875 C160.40367353 286.1724715 171.15713261 273.56027862 185.84277344 266.81054688 C193.39385556 263.71246794 200.65899826 261.58343822 208.82885742 261.48242188 C209.983228 261.46570435 211.13759857 261.44898682 212.32695007 261.4317627 C214.18184807 261.41139954 214.18184807 261.41139954 216.07421875 261.390625 C217.34977127 261.37221558 218.62532379 261.35380615 219.93952942 261.33483887 C224.7050434 261.26613784 229.4706338 261.20552499 234.23626709 261.14581299 C238.91150118 261.08684508 243.58660017 261.02075086 248.26171875 260.953125 C250.12572578 260.93276184 250.12572578 260.93276184 252.02738953 260.9119873 C253.17230362 260.89526978 254.31721771 260.87855225 255.49682617 260.86132812 C257.01308846 260.84253601 257.01308846 260.84253601 258.5599823 260.82336426 C260.98090585 260.82837686 260.98090585 260.82837686 262.96875 259.671875 C264.0596671 256.39912371 264.10883827 253.96864688 264.12988281 250.52319336 C264.14429413 248.61992531 264.14429413 248.61992531 264.15899658 246.6782074 C264.1638471 245.28937968 264.16812531 243.90054987 264.171875 242.51171875 C264.17763169 241.08264668 264.18338935 239.65357462 264.18914795 238.22450256 C264.19965484 235.22429038 264.20549835 232.22410494 264.20898438 229.22387695 C264.21444351 225.40329184 264.23841679 221.58306774 264.26695633 217.76259518 C264.28570926 214.80694091 264.29079516 211.85137101 264.29232025 208.89566231 C264.29532304 207.48882657 264.30327007 206.08199145 264.31650543 204.67521477 C264.40900067 194.08053188 264.23352196 184.11175916 256.57421875 176.07421875 C250.6960249 170.93973799 243.88210675 170.5478966 236.39629555 170.54324055 C234.42636649 170.53840388 234.42636649 170.53840388 232.41664088 170.5334695 C230.96596239 170.53494052 229.515284 170.53650823 228.06460571 170.53816223 C226.51832822 170.53629354 224.9720512 170.53399261 223.42577493 170.53129691 C219.17918036 170.52517974 214.93260547 170.52531241 210.6860075 170.52649128 C206.10513696 170.52669531 201.52427275 170.52117639 196.94340515 170.51643372 C187.96987901 170.50812725 178.99635945 170.50537888 170.02282979 170.50482134 C162.72946629 170.50434621 155.43610497 170.50229164 148.14274216 170.49912071 C127.4671421 170.49031446 106.79154724 170.48570134 86.11594529 170.48645119 C85.00131616 170.48649114 83.88668703 170.4865311 82.73828125 170.48657227 C81.06429768 170.48663359 81.06429768 170.48663359 79.35649626 170.48669615 C61.265699 170.4871027 43.17492255 170.47753082 25.08413132 170.4634339 C6.51101744 170.44907525 -12.06208629 170.44216342 -30.63520586 170.44302768 C-41.06358953 170.4433598 -51.49195138 170.44060576 -61.92033005 170.42984962 C-70.79822635 170.4207514 -79.67609094 170.41856383 -88.55398987 170.42535905 C-93.08354086 170.42862756 -97.61303099 170.42866895 -102.14257622 170.4200058 C-106.2902073 170.41215465 -110.43772913 170.41355805 -114.5853575 170.42228993 C-116.08463811 170.42382796 -117.58392682 170.42199735 -119.08319788 170.41642985 C-133.48210505 170.26007624 -133.48210505 170.26007624 -146.03125 176.671875 C-153.23540027 184.67648641 -153.18019125 192.50833346 -153.17169189 202.84210205 C-153.17466302 203.97131695 -153.17763414 205.10053184 -153.1806953 206.26396537 C-153.18937097 210.05000785 -153.19088959 213.83601868 -153.19238281 217.62207031 C-153.19647513 220.33576137 -153.20201607 223.04944912 -153.20742798 225.76313782 C-153.22098975 233.13718409 -153.22703251 240.5112249 -153.23143864 247.88528156 C-153.23420442 252.49224525 -153.23844236 257.09920685 -153.24294281 261.70616913 C-153.25513211 274.46927381 -153.26543245 287.23237683 -153.2688179 299.99548721 C-153.26903747 300.81178918 -153.26925703 301.62809115 -153.26948325 302.46912955 C-153.26970153 303.28734695 -153.26991981 304.10556435 -153.2701447 304.94857621 C-153.27058816 306.60650524 -153.27103473 308.26443426 -153.27148438 309.92236328 C-153.2717058 310.74474746 -153.27192723 311.56713164 -153.27215537 312.41443655 C-153.27610287 325.73806901 -153.29355693 339.06164677 -153.3168439 352.38525811 C-153.34057617 366.07446874 -153.35302059 379.76365195 -153.35418582 393.45288348 C-153.35510147 401.13485111 -153.36082605 408.81674743 -153.37900543 416.49869537 C-153.39443169 423.04014732 -153.39951199 429.58150589 -153.39126733 436.12297258 C-153.38736983 439.45795472 -153.38988962 442.79259665 -153.40232468 446.12758064 C-153.41503716 449.74978586 -153.40917057 453.37151132 -153.39874268 456.99371338 C-153.40679908 458.03828492 -153.41485548 459.08285647 -153.42315602 460.1590817 C-153.36274493 469.15322184 -152.09282575 477.53513259 -145.70703125 484.26953125 C-139.96619942 489.07363062 -132.81509274 489.79534294 -125.58743 489.80330276 C-123.62233761 489.80906448 -123.62233761 489.80906448 -121.61754638 489.8149426 C-120.16530369 489.81416239 -118.71306106 489.81328362 -117.26081848 489.81231689 C-115.71682924 489.81490114 -114.17284067 489.81791446 -112.62885302 489.8213203 C-108.38386237 489.8293866 -104.13888863 489.83117966 -99.89389122 489.83191776 C-95.31637168 489.83376896 -90.7388609 489.84131663 -86.16134644 489.84805298 C-76.15096095 489.86163418 -66.14057948 489.86766068 -56.13018632 489.87206364 C-49.8794555 489.87482641 -43.62872622 489.87906383 -37.37799644 489.88356781 C-20.07097502 489.89576018 -2.76395483 489.90605957 14.54307079 489.9094429 C15.65073379 489.90966247 16.75839678 489.90988203 17.89962532 489.91010825 C19.56509092 489.91043567 19.56509092 489.91043567 21.2642023 489.9107697 C23.51410687 489.91121317 25.76401144 489.91165973 28.01391602 489.91210938 C29.68796091 489.91244152 29.68796091 489.91244152 31.39582489 489.91278037 C49.47887774 489.91672826 67.5618903 489.93418214 85.64492758 489.9574689 C104.21123951 489.98118498 122.77753122 489.99364487 141.34385854 489.99481082 C151.76786291 489.99572743 162.19181477 490.00147633 172.61580467 490.01963043 C181.49221373 490.03503486 190.36855404 490.04014984 199.24497392 490.03189233 C203.77277011 490.02798706 208.30042788 490.02890945 212.82820702 490.04294968 C216.97664303 490.0556958 221.12483672 490.05448486 225.27327243 490.04235896 C226.77060152 490.0404032 228.26794781 490.04347482 229.76525273 490.05220333 C240.30236093 490.10971913 250.51521668 489.98207836 258.56640625 482.34765625 C263.10333219 476.92609294 264.08498317 470.0953163 264.1105957 463.2265625 C264.11763016 462.16195801 264.12466461 461.09735352 264.13191223 460.00048828 C264.13815865 458.29094971 264.13815865 458.29094971 264.14453125 456.546875 C264.16771919 454.12499121 264.1918361 451.70311617 264.21679688 449.28125 C264.25197389 445.46934048 264.28129955 441.65775561 264.29467773 437.84570312 C264.31012798 434.16236413 264.35030686 430.47996607 264.39453125 426.796875 C264.39262283 425.65718262 264.39071442 424.51749023 264.38874817 423.34326172 C264.51121866 415.43694082 264.51121866 415.43694082 266.87963867 411.4765625 C270.64456861 408.22421213 273.64998339 408.34397567 278.484375 408.37890625 C281.94073834 408.78649627 283.65538869 410.13464002 285.96875 412.671875 C287.31175855 415.35789209 287.12565674 417.46807496 287.16162109 420.47583008 C287.18571548 422.30462456 287.18571548 422.30462456 287.21029663 424.17036438 C287.22179397 425.51070451 287.23240083 426.85105253 287.2421875 428.19140625 C287.24751118 428.86839758 287.25283485 429.54538891 287.25831985 430.24289513 C287.28507685 433.83696739 287.30443013 437.43100487 287.31884766 441.02514648 C287.33210051 443.97859267 287.35978479 446.93133366 287.40087891 449.88452148 C287.45070856 453.46607478 287.47503116 457.04699645 287.48207474 460.62888145 C287.49190796 462.6343935 287.52604071 464.63974028 287.56088257 466.64497375 C287.52894233 480.69704163 282.96168167 491.22502376 273.38671875 501.34375 C265.67660695 508.62239569 255.87836692 512.78823677 245.37524509 512.80888939 C244.71099361 512.81154122 244.04674213 512.81419304 243.36236182 512.81692523 C241.12669725 512.82461163 238.89108767 512.82517715 236.65541077 512.82577515 C235.04017593 512.82979022 233.4249421 512.83422852 231.80970949 512.8390547 C227.36302708 512.85102133 222.91635552 512.85666888 218.46966016 512.86123586 C213.67665544 512.8671917 208.8836637 512.87880169 204.09066772 512.88952637 C192.51041771 512.91405222 180.93016339 512.92867854 169.34989539 512.94158643 C166.07876704 512.94529847 162.80763911 512.9492717 159.53651118 512.9533391 C139.22143555 512.9785776 118.90635925 513.00062985 98.5912714 513.01306725 C93.88531047 513.01599693 89.17934955 513.01895859 84.47338867 513.02197266 C83.30374911 513.02271871 82.13410954 513.02346476 80.92902636 513.02423342 C61.98786127 513.03688299 43.04679015 513.07010047 24.10566897 513.11177449 C4.65683551 513.15421452 -14.79194988 513.17776475 -34.24082953 513.18298781 C-45.15962469 513.18639975 -56.07827307 513.19812936 -66.99702263 513.23109055 C-76.29756534 513.25912071 -85.59793117 513.27007737 -94.89851283 513.25889508 C-99.64144161 513.25371591 -104.38400016 513.256547 -109.12687492 513.28136063 C-113.47548033 513.30392092 -117.82345103 513.30306099 -122.17206807 513.28415675 C-123.7388 513.2813662 -125.30557559 513.28690242 -126.87223756 513.30196969 C-142.13472394 513.43968938 -153.56781066 509.62676503 -164.703125 499.08984375 C-171.37987235 492.01730983 -176.1458067 482.37361225 -176.16547108 472.60328579 C-176.16992892 471.57450359 -176.17438676 470.54572139 -176.17897969 469.48576397 C-176.17879533 468.3570889 -176.17861097 467.22841384 -176.17842102 466.0655365 C-176.18209771 464.86523208 -176.1857744 463.66492766 -176.1895625 462.42825037 C-176.19868179 459.09504646 -176.20329738 455.76189176 -176.20595181 452.42868006 C-176.20985844 448.83408827 -176.21943658 445.23951069 -176.22816467 441.64492798 C-176.24791987 432.96274741 -176.25799449 424.28056568 -176.26689246 415.59836826 C-176.27127727 411.50791065 -176.27664361 407.41745434 -176.28188133 403.32699776 C-176.29889333 389.72587191 -176.31338666 376.12474687 -176.32063007 362.52361202 C-176.32253991 358.99466386 -176.32446025 355.46571571 -176.32641602 351.93676758 C-176.32689976 351.05968364 -176.3273835 350.1825997 -176.3278819 349.27893747 C-176.33617905 335.07639073 -176.36151076 320.8739283 -176.39399669 306.67141836 C-176.42709068 292.08390684 -176.44508098 277.49643813 -176.44827431 262.90888888 C-176.45043734 254.72102001 -176.45915546 246.53327405 -176.48473549 238.34544182 C-176.50647456 231.37100328 -176.51447722 224.39671753 -176.50476871 217.42224895 C-176.50023312 213.86639606 -176.50206641 210.31085816 -176.52153015 206.75504875 C-176.54249067 202.89226935 -176.53214706 199.02992047 -176.51899719 195.167099 C-176.52996644 194.05403899 -176.54093568 192.94097897 -176.55223733 191.79418987 C-176.44819102 179.09850849 -171.80105435 168.89206135 -163.15234375 159.66796875 C-153.61433289 150.74655657 -142.49288973 147.50619702 -129.72851562 147.10546875 C-125.21378887 146.90786891 -121.84806261 146.6118228 -118.66601562 143.21411133 C-118.26060547 142.64974365 -117.85519531 142.08537598 -117.4375 141.50390625 C-116.97069824 140.86557861 -116.50389648 140.22725098 -116.02294922 139.56958008 C-115.53068848 138.8814624 -115.03842773 138.19334473 -114.53125 137.484375 C-113.4630252 136.02451174 -112.39265709 134.56621474 -111.3203125 133.109375 C-110.77536133 132.36816406 -110.23041016 131.62695312 -109.66894531 130.86328125 C-107.16016387 127.50627138 -104.54114309 124.24275981 -101.90625 120.984375 C-97.85742337 115.96403834 -93.87119666 110.90740419 -89.95166016 105.78515625 C-86.41733018 101.1672989 -82.85341396 96.57302035 -79.28125 91.984375 C-78.39203857 90.84198364 -78.39203857 90.84198364 -77.48486328 89.67651367 C-76.27190319 88.11841695 -75.05884914 86.56039337 -73.84570312 85.00244141 C-70.90611662 81.22670234 -67.96877285 77.44921965 -65.03125 73.671875 C-63.86459461 72.17186623 -62.69792793 70.67186624 -61.53125 69.171875 C-60.95375 68.429375 -60.37625 67.686875 -59.78125 66.921875 C-40.53125 42.171875 -40.53125 42.171875 -38.77929688 39.91943359 C-37.61905038 38.4276418 -36.45889332 36.93578044 -35.29882812 35.44384766 C-32.28468317 31.5676708 -29.26873822 27.69291354 -26.25 23.8203125 C-25.62738281 23.02109375 -25.00476563 22.221875 -24.36328125 21.3984375 C-23.18417782 19.88496145 -22.00453354 18.37190653 -20.82421875 16.859375 C-20.28410156 16.16585938 -19.74398437 15.47234375 -19.1875 14.7578125 C-18.66414062 14.08588867 -18.14078125 13.41396484 -17.6015625 12.72167969 C-15.48558787 9.95959589 -13.44101609 7.14649792 -11.40820312 4.32275391 C-8.12084065 0.38141613 -4.85174201 -0.13941787 0 0 Z M132.875 31.8359375 C132.00430878 32.35155746 132.00430878 32.35155746 131.11602783 32.87759399 C129.22450636 34.00290368 127.34657765 35.14888358 125.46875 36.296875 C124.17016159 37.07873905 122.87100346 37.85965759 121.57128906 38.63964844 C118.95057073 40.21593954 116.33571821 41.80140118 113.72460938 43.39355469 C110.31060477 45.47184363 106.87002319 47.50221982 103.421875 49.5234375 C101.52013623 50.65507933 99.61904796 51.78781537 97.71875 52.921875 C96.83896484 53.43314941 95.95917969 53.94442383 95.05273438 54.47119141 C94.25673828 54.95507324 93.46074219 55.43895508 92.640625 55.9375 C91.9506543 56.34774414 91.26068359 56.75798828 90.54980469 57.18066406 C88.39488473 59.21313027 88.15218839 60.75612464 87.96875 63.671875 C89.57964191 65.73176019 90.95364635 67.0558409 92.96875 68.671875 C93.99790527 69.49727783 93.99790527 69.49727783 95.04785156 70.33935547 C97.54168935 72.29239238 100.06300862 74.20441694 102.59375 76.109375 C103.52380859 76.81384766 104.45386719 77.51832031 105.41210938 78.24414062 C112.16621594 83.34754905 118.97237053 88.37794995 125.80126953 93.38061523 C132.64505033 98.40454348 139.39129136 103.5510049 146.1328125 108.7109375 C152.62462558 113.6707593 159.18098655 118.53438743 165.77392578 123.35864258 C172.93724431 128.6142974 179.99550783 134.00411323 187.02929688 139.43164062 C187.86267578 140.07166016 188.69605469 140.71167969 189.5546875 141.37109375 C190.2873584 141.93658936 191.0200293 142.50208496 191.77490234 143.0847168 C196.69729518 146.64586478 199.79715237 148.10272457 205.96875 148.109375 C207.763125 148.13837891 207.763125 148.13837891 209.59375 148.16796875 C213.50155341 147.59355783 215.15070708 146.36716227 217.96875 143.671875 C216.48418138 138.06891493 213.69840225 133.92923906 210.44921875 129.2265625 C209.88697601 128.39993103 209.32473328 127.57329956 208.74545288 126.72161865 C207.52670735 124.93082669 206.30488995 123.1421223 205.08035278 121.35528564 C201.78052687 116.53887651 198.50448216 111.70633282 195.2265625 106.875 C194.54688919 105.87429474 193.86721588 104.87358948 193.16694641 103.84255981 C185.85435799 93.06028132 178.68330291 82.18605485 171.53125 71.296875 C170.94862396 70.40981873 170.36599792 69.52276245 169.76571655 68.60882568 C168.62340407 66.86952444 167.48128634 65.13009527 166.33937073 63.39053345 C165.23091121 61.70422939 164.12062615 60.01912374 163.00840759 58.33529663 C160.03282776 53.82940682 157.0911479 49.30525925 154.18701172 44.75292969 C152.93600419 42.81697212 151.68486837 40.88109745 150.43359375 38.9453125 C149.57333336 37.57483261 149.57333336 37.57483261 148.69569397 36.17666626 C148.15021408 35.33896698 147.60473419 34.5012677 147.04272461 33.63818359 C146.56870712 32.89490814 146.09468964 32.15163269 145.60630798 31.38583374 C141.38605338 26.9686819 137.45125407 29.0830565 132.875 31.8359375 Z M-4.21875 32.859375 C-4.81945312 33.59800781 -5.42015625 34.33664063 -6.0390625 35.09765625 C-6.69648438 35.94714844 -7.35390625 36.79664063 -8.03125 37.671875 C-9.11019531 39.05439453 -9.11019531 39.05439453 -10.2109375 40.46484375 C-11.87375586 42.61560389 -13.52895098 44.77070186 -15.17578125 46.93359375 C-18.34900846 51.0978253 -21.56408036 55.22905048 -24.78125 59.359375 C-25.37365479 60.12040527 -25.96605957 60.88143555 -26.57641602 61.66552734 C-27.78976008 63.22421157 -29.00322112 64.78280475 -30.21679688 66.34130859 C-33.15638338 70.11704766 -36.09372715 73.89453035 -39.03125 77.671875 C-40.19790539 79.17188377 -41.36457207 80.67188376 -42.53125 82.171875 C-43.3975 83.285625 -43.3975 83.285625 -44.28125 84.421875 C-49.53125 91.171875 -49.53125 91.171875 -51.28149414 93.42211914 C-52.44743716 94.92123522 -53.61329012 96.42042136 -54.77905273 97.91967773 C-58.29473909 102.4408278 -61.81380522 106.95931922 -65.33544922 111.47583008 C-67.0749554 113.71023325 -68.80920034 115.94864312 -70.54296875 118.1875 C-72.93918509 121.27930448 -75.36218692 124.34778072 -77.80078125 127.40625 C-79.00278004 128.93215314 -80.20460908 130.45819002 -81.40625 131.984375 C-81.972229 132.68377197 -82.53820801 133.38316895 -83.12133789 134.10375977 C-85.31404404 136.90931062 -86.86492198 138.9723189 -87.6953125 142.46484375 C-87.20661947 144.83858479 -87.20661947 144.83858479 -85.04248047 146.28491211 C-80.9997356 148.14698716 -77.58655298 148.10322843 -73.1875 148.0703125 C-72.34078735 148.07318268 -71.49407471 148.07605286 -70.6217041 148.07901001 C-68.83650033 148.08104604 -67.05127402 148.0755485 -65.26611328 148.06298828 C-62.54018062 148.04692762 -59.81573053 148.06285218 -57.08984375 148.08203125 C-55.35155924 148.08004874 -53.61327565 148.07620489 -51.875 148.0703125 C-51.06341431 148.07638519 -50.25182861 148.08245789 -49.41564941 148.0887146 C-44.79365429 148.03152737 -41.76715758 147.67121372 -38.03125 144.671875 C-36.16627894 142.71805183 -36.16627894 142.71805183 -34.53515625 140.453125 C-33.90150146 139.61322021 -33.26784668 138.77331543 -32.61499023 137.90795898 C-31.61447632 136.55359741 -31.61447632 136.55359741 -30.59375 135.171875 C-29.89000244 134.23351807 -29.18625488 133.29516113 -28.46118164 132.32836914 C-26.3074991 129.45041795 -24.16722427 126.56298664 -22.03125 123.671875 C-21.41475586 122.83897949 -20.79826172 122.00608398 -20.16308594 121.14794922 C-18.42931039 118.80346634 -16.69833405 116.4569514 -14.96875 114.109375 C-14.40881348 113.34955322 -13.84887695 112.58973145 -13.27197266 111.80688477 C-10.85440499 108.52234875 -8.44004117 105.23597463 -6.046875 101.93359375 C-4.03059521 99.15158938 -2.00052817 96.38007212 0.03125 93.609375 C0.6507251 92.74562256 1.2702002 91.88187012 1.90844727 90.99194336 C2.79101196 89.79516968 2.79101196 89.79516968 3.69140625 88.57421875 C4.20453369 87.86773193 4.71766113 87.16124512 5.24633789 86.43334961 C8.09168399 83.52347404 10.86719892 82.81958 14.83642578 82.28735352 C18.93582914 82.79059282 21.72706185 84.57850188 25.0859375 86.82421875 C25.77509247 87.27014877 26.46424744 87.7160788 27.17428589 88.17552185 C29.45071395 89.65744795 31.71095858 91.16172449 33.96875 92.671875 C34.74029419 93.18534485 35.51183838 93.6988147 36.3067627 94.22784424 C41.35164066 97.59096672 46.37317247 100.98774666 51.38772583 104.39587402 C67.02598804 115.02067208 82.73212929 125.5378172 98.53125 135.921875 C99.35683411 136.46506378 100.18241821 137.00825256 101.03302002 137.56790161 C103.34518912 139.08853066 105.65857496 140.60728287 107.97265625 142.125 C108.65702255 142.57461594 109.34138885 143.02423187 110.04649353 143.48747253 C117.23797417 148.19283142 122.24473993 147.88791574 130.78125 147.921875 C132.06580078 147.9425 133.35035156 147.963125 134.67382812 147.984375 C136.53104492 147.99210937 136.53104492 147.99210937 138.42578125 148 C140.1269812 148.01401855 140.1269812 148.01401855 141.86254883 148.02832031 C145.28832629 147.63520272 147.17872555 146.6459028 149.96875 144.671875 C150.20135661 141.93801896 150.20135661 141.93801896 148.96875 138.671875 C146.12992446 135.7933345 142.87436207 133.52140936 139.59375 131.171875 C138.64564453 130.47191406 137.69753906 129.77195312 136.72070312 129.05078125 C133.81424281 126.90917892 130.89246116 124.78983899 127.96875 122.671875 C125.56468453 120.90684129 123.16475958 119.13630044 120.76513672 117.36523438 C119.22413176 116.22889476 117.68146408 115.09480679 116.13720703 113.96289062 C109.29192127 108.94064988 102.54636545 103.79286512 95.8046875 98.6328125 C90.06972273 94.25123174 84.29115437 89.93644542 78.46875 85.671875 C70.84134983 80.0852508 63.31230435 74.37911162 55.8046875 68.6328125 C49.31332427 63.6733344 42.75603704 58.8120071 36.16577148 53.98510742 C27.37082743 47.52760415 18.70917594 40.89570398 10.04907227 34.2590332 C9.36256592 33.735271 8.67605957 33.21150879 7.96875 32.671875 C7.27233398 32.11677246 6.57591797 31.56166992 5.85839844 30.98974609 C1.78450846 28.14854996 -1.29636706 29.21578702 -4.21875 32.859375 Z M15.96875 110.671875 C7.97255854 120.79400409 0.13543384 130.94080872 -7.03125 141.671875 C-4.99322865 145.73211821 -4.99322865 145.73211821 -1.03125 147.671875 C0.85910038 147.77529761 2.75286056 147.82041378 4.64599609 147.83300781 C5.81085541 147.84261536 6.97571472 147.8522229 8.1758728 147.86212158 C10.06494858 147.8684964 10.06494858 147.8684964 11.9921875 147.875 C13.93238266 147.88355011 13.93238266 147.88355011 15.91177368 147.89227295 C18.65049634 147.90277173 21.38918974 147.90862175 24.12792969 147.91210938 C27.63065523 147.91759238 31.13299172 147.94162042 34.63559532 147.97008133 C37.98361856 147.99322757 41.3315884 147.99515851 44.6796875 148 C46.56269058 148.0185202 46.56269058 148.0185202 48.48373413 148.03741455 C50.24047958 148.0329129 50.24047958 148.0329129 52.03271484 148.02832031 C53.06069183 148.03196594 54.08866882 148.03561157 55.14779663 148.03936768 C58.45309187 147.60877857 60.32465396 146.68100653 62.96875 144.671875 C63.29875 143.681875 63.62875 142.691875 63.96875 141.671875 C60.93059768 136.66699097 56.26933483 133.88511213 51.4765625 130.75 C50.24122269 129.93181793 50.24122269 129.93181793 48.98092651 129.09710693 C47.24374944 127.95009103 45.50378502 126.80728682 43.76123047 125.66845703 C41.10109602 123.92668494 38.45457887 122.16551459 35.80859375 120.40234375 C34.1153707 119.28786534 32.42138508 118.17454445 30.7265625 117.0625 C29.54503098 116.27350311 29.54503098 116.27350311 28.33963013 115.46856689 C24.21472176 112.79577167 21.00452853 111.0067247 15.96875 110.671875 Z M179.5078125 300.45703125 C174.20463066 308.08876755 172.02293148 317.48392363 172.96875 326.671875 C175.36655785 338.34313248 180.50986173 347.15362223 190.33242798 354.05795288 C202.37266919 361.42883226 216.311727 360.2258656 229.8828125 360.1328125 C232.18875017 360.13042451 234.49468981 360.1295235 236.80062866 360.1300354 C241.60663219 360.12692339 246.41233401 360.11047084 251.21826172 360.08349609 C257.38431095 360.04932665 263.55003268 360.04187383 269.71616554 360.04338646 C274.46527237 360.0428437 279.21430736 360.03189479 283.96339035 360.01738358 C286.23843213 360.01101566 288.51348204 360.00707669 290.78853226 360.00559616 C293.95503003 360.001274 297.1211753 359.98380186 300.28759766 359.96240234 C301.22886505 359.96330872 302.17013245 359.96421509 303.1399231 359.96514893 C304.4305365 359.95235397 304.4305365 359.95235397 305.7472229 359.93930054 C306.49450464 359.93594885 307.24178638 359.93259716 308.01171303 359.92914391 C310.29082201 359.77603698 310.29082201 359.77603698 312.96875 357.671875 C314.06697083 354.37721252 314.10897216 351.91356632 314.12988281 348.44384766 C314.13949036 347.15886383 314.1490979 345.87388 314.15899658 344.54995728 C314.16384448 343.14528582 314.16812333 341.74061231 314.171875 340.3359375 C314.17762878 338.89488727 314.18338649 337.45383706 314.18914795 336.01278687 C314.19964928 332.99159387 314.20549767 329.97042742 314.20898438 326.94921875 C314.21446837 323.08330432 314.23849766 319.21774221 314.26695633 315.35193825 C314.28560566 312.37504052 314.29078951 309.3982273 314.29232025 306.42127609 C314.29534197 304.99635262 314.30335432 303.57143047 314.31650543 302.14656448 C314.3336125 300.150678 314.32983413 298.15464581 314.32519531 296.15869141 C314.32884094 295.02412506 314.33248657 293.88955872 314.33624268 292.72061157 C313.89337772 289.046583 313.59228647 287.33538652 310.96875 284.671875 C307.64936046 283.91178348 304.37257244 283.9999872 300.98046875 284.04077148 C299.95406784 284.03361618 298.92766693 284.02646088 297.87016296 284.01908875 C294.46507695 284.00213467 291.06129599 284.02165544 287.65625 284.04296875 C285.28792207 284.04214017 282.91959419 284.03968119 280.55126953 284.03565979 C275.57778692 284.03279652 270.60475328 284.04754621 265.63134766 284.07495117 C259.27729457 284.10888565 252.92405237 284.10306993 246.56996155 284.0842886 C241.67292622 284.07367712 236.77607692 284.08269663 231.87905884 284.09767342 C229.53806105 284.1028353 227.19704366 284.1023978 224.85604858 284.09612846 C221.56767678 284.09063234 218.28043082 284.11119825 214.9921875 284.13842773 C213.55778572 284.12863892 213.55778572 284.12863892 212.09440613 284.11865234 C198.56426433 284.30761475 188.09746062 290.23966442 179.5078125 300.45703125 Z " fill="#000000" transform="translate(176.03125,-0.671875)"/>
<path d="M0 0 C3.86292884 1.67953428 5.43637119 3.14641986 7 7 C7.30297852 9.33422852 7.30297852 9.33422852 7.37890625 11.87890625 C7.41306641 12.79994141 7.44722656 13.72097656 7.48242188 14.66992188 C7.50884766 15.62447266 7.53527344 16.57902344 7.5625 17.5625 C7.62246721 19.45976051 7.68610889 21.35690941 7.75390625 23.25390625 C7.77783447 24.09252197 7.8017627 24.9311377 7.82641602 25.79516602 C7.9248012 28.17572686 7.9248012 28.17572686 9 31 C11.32343556 32.16171778 12.69633316 32.12903969 15.28125 32.1328125 C16.54388672 32.13474609 16.54388672 32.13474609 17.83203125 32.13671875 C18.71246094 32.13285156 19.59289062 32.12898438 20.5 32.125 C21.38042969 32.12886719 22.26085937 32.13273437 23.16796875 32.13671875 C24.00972656 32.13542969 24.85148437 32.13414062 25.71875 32.1328125 C26.49154297 32.13168457 27.26433594 32.13055664 28.06054688 32.12939453 C30.08209199 32.12007086 30.08209199 32.12007086 32 31 C32.97864682 28.06405955 33.12370836 26.12940465 33.140625 23.0703125 C33.16962891 21.62978516 33.16962891 21.62978516 33.19921875 20.16015625 C33.23293887 18.14473089 33.25129185 16.12898698 33.25390625 14.11328125 C33.44190603 6.72192156 33.44190603 6.72192156 36.421875 2.8671875 C40.59224258 -0.15316962 43.91793317 -0.54624903 49 0 C52.85709874 1.67699945 54.46145443 3.13740314 56 7 C56.30297852 9.60961914 56.30297852 9.60961914 56.37890625 12.53515625 C56.41306641 13.59154297 56.44722656 14.64792969 56.48242188 15.73632812 C56.52206055 17.3827832 56.52206055 17.3827832 56.5625 19.0625 C56.62241182 21.24099588 56.68604345 23.41939355 56.75390625 25.59765625 C56.77783447 26.56195557 56.8017627 27.52625488 56.82641602 28.51977539 C56.90575742 31.132643 56.90575742 31.132643 58 34 C60.44848706 35.37566932 60.44848706 35.37566932 63.4375 36.625 C74.00125798 41.70566455 81.7502578 49.04188544 86.18359375 59.8984375 C90.17476684 71.30573498 90.60667102 82.71576914 86 94 C85.47599609 95.03833984 85.47599609 95.03833984 84.94140625 96.09765625 C83.43371602 99.14431659 83.2741949 100.63490361 84 104 C86.06086489 105.89672521 88.2711196 107.46207632 90.546875 109.09375 C97.51691939 114.50996284 101.34099696 121.72278085 104 130 C104.28810547 130.88751953 104.28810547 130.88751953 104.58203125 131.79296875 C107.06779968 144.91875531 104.8372461 157.65797812 97.4375 168.75 C88.92188854 179.67836804 77.94918932 185.09739936 64.4375 187 C63.44621094 187.103125 62.45492187 187.20625 61.43359375 187.3125 C58.89663469 187.74132488 58.89663469 187.74132488 57.86279297 189.74243164 C56.90139707 192.25800262 56.76041014 194.1220153 56.76171875 196.80859375 C56.74560547 197.72060547 56.72949219 198.63261719 56.71289062 199.57226562 C56.69599876 201.4784479 56.69074185 203.38476967 56.69726562 205.29101562 C56.5438572 212.30326533 56.5438572 212.30326533 53.58203125 216.09765625 C49.42445477 219.16080261 46.09474964 219.55739104 41 219 C37.41447119 217.36312815 36.20684945 216.31027417 34 213 C33.71289062 210.79516602 33.71289062 210.79516602 33.65625 208.25390625 C33.62660156 207.33416016 33.59695312 206.41441406 33.56640625 205.46679688 C33.53353516 204.02916992 33.53353516 204.02916992 33.5 202.5625 C33.4565014 200.66775221 33.40472707 198.7731721 33.34375 196.87890625 C33.32505859 196.0391626 33.30636719 195.19941895 33.28710938 194.33422852 C32.97486276 191.79563167 32.35605778 190.15979203 31 188 C27.74316597 186.37158299 24.20041665 186.73204423 20.625 186.6875 C19.85671875 186.65849609 19.0884375 186.62949219 18.296875 186.59960938 C14.81813421 186.56048859 12.57677527 186.68515067 9.48828125 188.37109375 C6.75018836 193.20767252 7.52833639 198.77137352 7.59960938 204.203125 C7.50539732 212.02826723 7.50539732 212.02826723 4.74609375 215.59765625 C1.31591646 218.59845146 -0.46076916 218.96765205 -4.8515625 219.171875 C-8.86241053 218.85100716 -11.02263044 217.11070803 -13.60522461 214.17578125 C-15.20485662 211.68043371 -15.39150232 210.31066594 -15.44140625 207.375 C-15.46783203 206.50359375 -15.49425781 205.6321875 -15.52148438 204.734375 C-15.53501953 203.83203125 -15.54855469 202.9296875 -15.5625 202 C-15.59705708 200.20815136 -15.63973019 198.41643667 -15.69140625 196.625 C-15.70373291 195.83351563 -15.71605957 195.04203125 -15.72875977 194.2265625 C-16.03183214 191.73869569 -16.67764225 190.12091116 -18 188 C-20.45300716 186.77349642 -22.09181651 186.87443802 -24.83203125 186.859375 C-25.79560547 186.84003906 -26.75917969 186.82070313 -27.75195312 186.80078125 C-29.78040166 186.7671248 -31.80916458 186.74871315 -33.83789062 186.74609375 C-41.27762905 186.55774594 -41.27762905 186.55774594 -45.13671875 183.578125 C-48.14869447 179.41061142 -48.55547241 176.07721272 -48 171 C-46.36312815 167.41447119 -45.31027417 166.20684945 -42 164 C-39.70336914 163.74462891 -39.70336914 163.74462891 -37.03515625 163.7265625 C-35.58786133 163.695625 -35.58786133 163.695625 -34.11132812 163.6640625 C-32.08276688 163.63807197 -30.05409151 163.61981205 -28.02539062 163.609375 C-27.05923828 163.58617187 -26.09308594 163.56296875 -25.09765625 163.5390625 C-24.21601807 163.53084473 -23.33437988 163.52262695 -22.42602539 163.51416016 C-19.02861921 162.79413023 -18.06640277 161.80970359 -16 159 C-15.40582589 155.87426737 -15.47434207 152.78663319 -15.51416016 149.61328125 C-15.51036346 148.6632724 -15.50656677 147.71326355 -15.50265503 146.73446655 C-15.49524427 143.59347543 -15.51663981 140.45340895 -15.5390625 137.3125 C-15.54144672 135.13061634 -15.54235229 132.9487306 -15.5418396 130.7668457 C-15.54496852 126.19371695 -15.56154119 121.6209015 -15.58837891 117.04785156 C-15.62235868 111.18318749 -15.63000751 105.3188678 -15.62848854 99.45411682 C-15.62903217 94.9485749 -15.63999825 90.4431084 -15.65449142 85.93759155 C-15.6608599 83.77502005 -15.66479844 81.61243999 -15.66627884 79.44985962 C-15.67061125 76.42866434 -15.68811126 73.40783541 -15.70947266 70.38671875 C-15.70856628 69.49101166 -15.70765991 68.59530457 -15.70672607 67.67245483 C-15.71525604 66.84814972 -15.72378601 66.0238446 -15.73257446 65.17456055 C-15.73592615 64.46075729 -15.73927784 63.74695404 -15.74273109 63.01152039 C-16.04149824 60.67553575 -16.84759573 59.0382014 -18 57 C-18.95253662 56.98598145 -18.95253662 56.98598145 -19.92431641 56.97167969 C-22.825308 56.91771267 -25.72473244 56.83411873 -28.625 56.75 C-29.62402344 56.73582031 -30.62304688 56.72164063 -31.65234375 56.70703125 C-37.69904013 56.50680952 -41.4141521 56.06641529 -46 52 C-48.81725233 47.7741215 -48.79958384 43.96375312 -48 39 C-45.80977082 36.17575712 -44.16982793 34.58491397 -41 33 C-39.35749666 32.85950368 -37.71006509 32.77429918 -36.0625 32.71875 C-35.08539063 32.68136719 -34.10828125 32.64398438 -33.1015625 32.60546875 C-30 32.5 -30 32.5 -26.8984375 32.39453125 C-25.92132813 32.35714844 -24.94421875 32.31976563 -23.9375 32.28125 C-23.03902344 32.25095703 -22.14054687 32.22066406 -21.21484375 32.18945312 C-18.96005305 32.13392543 -18.96005305 32.13392543 -17 31 C-16.05252531 28.15757594 -15.83831063 26.21203811 -15.75390625 23.25390625 C-15.72103516 22.33416016 -15.68816406 21.41441406 -15.65429688 20.46679688 C-15.59322608 18.53462096 -15.53591844 16.60232233 -15.48242188 14.66992188 C-15.44826172 13.74888672 -15.41410156 12.82785156 -15.37890625 11.87890625 C-15.34132202 10.61929077 -15.34132202 10.61929077 -15.30297852 9.33422852 C-14.82501268 5.65185028 -13.73424911 3.60467573 -10.875 1.25 C-7.11750812 -0.38369212 -4.03811187 -0.60489935 0 0 Z M7.95263672 58.07568359 C6.79730532 61.62221346 6.61141201 64.57906596 6.6015625 68.3125 C6.59869232 69.00384033 6.59582214 69.69518066 6.59286499 70.4074707 C6.59083161 71.86312687 6.59631062 73.31881081 6.60888672 74.77441406 C6.62495268 76.99346425 6.60901539 79.21069347 6.58984375 81.4296875 C6.59182631 82.84896232 6.59567026 84.26823602 6.6015625 85.6875 C6.60494629 86.97011719 6.60833008 88.25273437 6.61181641 89.57421875 C7.04369671 93.38563033 7.30291152 95.24212113 10 98 C12.99062191 98.73940555 15.91320792 98.67640014 18.98046875 98.62890625 C19.86728836 98.63131821 20.75410797 98.63373016 21.6678009 98.63621521 C23.54656436 98.63523537 25.42535619 98.62180912 27.30395508 98.59692383 C30.16003421 98.56282789 33.01298188 98.57620295 35.86914062 98.59570312 C37.69792971 98.58879825 39.52671083 98.57912009 41.35546875 98.56640625 C42.20159225 98.57136612 43.04771576 98.57632599 43.91947937 98.58143616 C49.71819259 98.46814416 54.14188929 97.24039599 59 94 C61.09995699 91.85194648 61.09995699 91.85194648 62.4375 89.4375 C62.91058594 88.67308594 63.38367188 87.90867187 63.87109375 87.12109375 C66.50028134 82.1811323 66.67218332 77.4701815 66 72 C63.70927437 64.89155992 60.43567315 60.6945531 54 57 C51.32358477 56.10786159 49.69565482 55.85679655 46.94335938 55.80712891 C46.13241821 55.79106598 45.32147705 55.77500305 44.48596191 55.75845337 C40.79778011 55.71393789 37.10977399 55.67298205 33.42138672 55.64990234 C31.47367439 55.63329975 29.52602404 55.6059535 27.57861328 55.56787109 C24.77083748 55.51326358 21.96448432 55.49125887 19.15625 55.4765625 C18.28432007 55.45389313 17.41239014 55.43122375 16.51403809 55.40786743 C11.69569415 55.33668687 11.69569415 55.33668687 7.95263672 58.07568359 Z M8 123 C6.19735306 128.40794082 6.69442133 134.38122795 6.64990234 140.05078125 C6.63333751 141.59683276 6.60603979 143.14280751 6.56787109 144.68847656 C6.51297112 146.92553121 6.49121383 149.16079912 6.4765625 151.3984375 C6.45389313 152.08505463 6.43122375 152.77167175 6.40786743 153.47909546 C6.42319245 156.97758691 6.97739431 158.9638459 8.83837891 161.94018555 C13.52159007 164.99132474 17.63296053 164.66148142 23.109375 164.55859375 C24.19075745 164.55626236 25.27213989 164.55393097 26.3862915 164.55152893 C28.672647 164.54179559 30.95897852 164.52001824 33.24511719 164.48706055 C36.7236757 164.43787224 40.20081335 164.4255902 43.6796875 164.41992188 C45.90626487 164.40582568 48.13283007 164.38961764 50.359375 164.37109375 C51.39092712 164.36573105 52.42247925 164.36036835 53.48529053 164.35484314 C62.8476714 164.20276313 70.42580446 163.62367017 77.3359375 156.90625 C82.13176124 151.41244253 82.48612905 145.81252171 82.28515625 138.8046875 C81.65296147 132.58666218 78.56771447 129.02393894 74 125 C69.17531174 121.70509094 65.42152901 120.87816111 59.63647461 120.85473633 C58.5653392 120.84835648 57.4942038 120.84197662 56.39060974 120.83540344 C55.23948196 120.83429062 54.08835419 120.8331778 52.90234375 120.83203125 C51.71653214 120.82870285 50.53072052 120.82537445 49.30897522 120.82194519 C46.80323678 120.81688418 44.2974916 120.81453661 41.79174805 120.81469727 C37.94894408 120.81250652 34.10642521 120.79433014 30.26367188 120.77539062 C27.83073015 120.77245745 25.39778706 120.77047215 22.96484375 120.76953125 C21.81169174 120.76234573 20.65853973 120.75516022 19.47044373 120.74775696 C18.40246048 120.75083359 17.33447723 120.75391022 16.23413086 120.75708008 C15.29355331 120.75565506 14.35297577 120.75423004 13.38389587 120.75276184 C10.73464081 120.84041718 10.73464081 120.84041718 8 123 Z " fill="#000000" transform="translate(162,228)"/>
<path d="M0 0 C2.97137533 3.47236303 4.22123376 6.35864359 4.65625 10.8828125 C4.19857314 16.37493482 2.36693553 19.84084818 -1.84375 23.5703125 C-6.47873989 25.32130868 -10.95751702 25.55141969 -15.6875 23.94140625 C-20.08640382 21.71399521 -22.11720084 19.24995998 -23.65625 14.6328125 C-24.21763108 9.39325571 -23.51257372 6.06503897 -20.65625 1.6328125 C-14.97099774 -3.90282786 -6.53612599 -5.39538702 0 0 Z " fill="#000000" transform="translate(412.65625,310.3671875)"/>
</svg>
